<svg xmlns="http://www.w3.org/2000/svg">
<symbol id="icon-about" viewBox="0 0 16 16"><path fill="#222" stroke="#57606A" stroke-linejoin="round" stroke-width="1.2" d="M13.3 15H2.5V1h7.386L13.3 4.414V15z"/><mask id="a" width="9" height="10" x="3" y="4" maskUnits="userSpaceOnUse" style="mask-type:alpha"><path fill="#FF5722" stroke="#57606A" stroke-width="1.2" d="M7.612 5.5v.824a2 2 0 0 0 2 2h1.218v4.59H4.7V5.5h2.912zm2 .662l.175.162h-.175v-.162z"/></mask><g mask="url(#a)"><path fill="#82D7F7" fill-rule="evenodd" d="M6.146 6.958c-.306.132-.468.438-.495.936-.015.272.045.796.11.965.015.04-.047.073-.28.15a2.57 2.57 0 0 0-.906.496c-.425.383-.417.87.021 1.261.204.181.675.428.99.517.154.044.192.067.176.11-.066.17-.126.692-.11.966.048.889.562 1.207 1.344.83.248-.12.708-.448.824-.59.042-.051.058-.045.184.071.559.514 1.172.77 1.548.646.33-.11.517-.436.545-.957.015-.273-.044-.796-.11-.966-.016-.042.029-.069.21-.124.554-.17 1.07-.518 1.216-.817a.794.794 0 0 0 0-.65c-.143-.296-.631-.632-1.165-.802-.219-.07-.276-.1-.26-.14.065-.17.124-.694.11-.966-.05-.889-.563-1.206-1.345-.83-.248.119-.708.448-.824.589-.04.05-.063.04-.235-.114-.574-.515-1.178-.741-1.548-.581zm.756.397c.13.064.352.215.494.336l.257.22-.308.385c-.298.373-.312.386-.46.404-.084.01-.3.045-.48.077l-.328.06-.031-.119c-.184-.694-.099-1.312.201-1.47.127-.068.388-.025.655.107zm2.674-.06c.2.178.271.63.18 1.153-.03.175-.068.332-.085.348-.016.017-.155.007-.325-.023a12.083 12.083 0 0 0-.467-.073c-.17-.021-.17-.022-.476-.405l-.307-.384.23-.199c.52-.445 1.027-.615 1.25-.417zM8.092 8.398l.206.252H7.45l.206-.252c.113-.139.211-.252.218-.252.007 0 .105.113.218.252zm.241.575l.224.021.25.424c.139.233.284.488.324.568l.073.145-.14.258a11.56 11.56 0 0 1-.488.829c-.047.063-.089.067-.702.067-.612 0-.654-.004-.701-.067a11.56 11.56 0 0 1-.49-.83l-.138-.257.072-.145c.04-.08.186-.337.325-.571.253-.426.253-.426.391-.439.25-.023.772-.024 1-.003zm-1.559.088c-.009.024-.1.19-.2.37l-.185.327-.068-.16c-.087-.204-.157-.44-.137-.461a5.66 5.66 0 0 1 .578-.115c.016-.002.021.016.012.04zm2.586.028c.12.023.21.057.21.08 0 .048-.108.363-.17.495-.042.092-.043.09-.226-.234-.242-.43-.24-.423-.121-.4l.307.06zm-3.436.32c.033.104.11.307.173.453l.113.265-.113.264c-.062.146-.14.35-.173.453-.033.104-.069.189-.08.189-.053 0-.502-.165-.639-.235-.842-.428-.842-.915 0-1.343.152-.077.556-.228.624-.232.02-.002.062.082.095.186zm4.236-.11c.624.213 1.02.534 1.02.828 0 .221-.23.465-.636.671-.137.07-.587.235-.639.235-.011 0-.048-.085-.08-.189a6.116 6.116 0 0 0-.173-.453l-.114-.264.114-.265c.062-.146.14-.35.172-.453.033-.104.07-.189.081-.189.012 0 .127.036.255.08zm-2.554.246a.635.635 0 0 0-.34.404.47.47 0 0 0 0 .355c.179.613 1.038.613 1.216 0a.47.47 0 0 0 0-.355.62.62 0 0 0-.614-.459.692.692 0 0 0-.262.055zm-.83 1.674c-.014.014-.573-.084-.592-.103-.02-.02.05-.26.137-.462l.069-.16.198.357c.11.197.194.362.188.368zm2.73-.361c.035.102.063.204.063.227 0 .04-.563.167-.595.135-.008-.007.074-.172.181-.365.222-.398.213-.398.35.003zm-2.823.666a2.2 2.2 0 0 1 .373.074c.012.012.15.185.31.383l.288.361-.258.22c-.347.296-.697.468-.951.468-.144 0-.21-.016-.267-.067-.205-.182-.278-.63-.186-1.154.03-.173.063-.33.075-.348.011-.018.074-.023.142-.011.066.011.28.045.474.074zm3.048.113c.025.102.048.351.05.554.007.413-.046.615-.198.759-.215.201-.73.039-1.23-.388l-.257-.219.307-.385.307-.385.186-.022c.103-.012.285-.042.405-.066.355-.07.377-.062.43.152zm-1.639.218a3.036 3.036 0 0 1-.218.252c-.007 0-.105-.113-.218-.252l-.206-.251h.848l-.206.251z" clip-rule="evenodd"/></g><path stroke="#57606A" stroke-linejoin="round" stroke-width="1.2" d="M9.9 1l3.404 3.242-.46 1.058H8.7V1h1.2z"/></symbol>
<symbol id="icon-arrow" viewBox="0 0 16 16"><path fill="#57606A" d="M8 11L4.536 7.4h6.928L8 11z"/></symbol>
<symbol id="icon-code" viewBox="0 0 16 16"><path fill="none" stroke="#57606A" stroke-linecap="round" stroke-linejoin="round" stroke-width="1.2" d="M5.655 3.5L1 8.155l4.655 4.654m4.69.001L15 8.154 10.345 3.5"/></symbol>
<symbol id="icon-bar" viewBox="0 0 18 16"><path stroke="#57606A" stroke-linecap="round" stroke-linejoin="round" stroke-width="1.2" d="M1.5 14h15M1.5 2h15m-15 6h15"/></symbol>
<symbol id="icon-blog" viewBox="0 0 16 16"><path fill="#1572B6" stroke="#57606A" stroke-width="1.2" d="M13.3 15H2.5V1h7.386L13.3 4.414V15z"/><path fill="#fff" d="M5.063 7.64L5 6.5h6l-.55 6.085-2.45.654-2.493-.655-.127-1.9h1.205l.084.929 1.331.38 1.331-.38.169-1.606H5.296L5.19 8.803h4.395L9.69 7.64H5.063z"/><path fill="none" stroke="#57606A" stroke-linejoin="round" stroke-width="1.2" d="M9.9 1l3.404 3.242-.46 1.058H8.7V1h1.2z"/></symbol>
<symbol id="icon-copilot" viewBox="0 0 16 16"><path stroke="#57606A" stroke-width="1.2" d="M13.031 6.579C14.25 7.327 15 8.346 15 9.469c0 2.295-3.134 4.156-7 4.156s-7-1.86-7-4.156c0-1.102.722-2.104 1.901-2.848"/><mask id="a" fill="#fff"><path fill-rule="evenodd" d="M12.375 12.713C13.975 11.952 15 10.781 15 9.47c0-1.15-.787-2.191-2.058-2.944l-.567.756v5.432zm-8.75 0V7.281l-.808-.606C1.688 7.413 1 8.393 1 9.469c0 1.312 1.025 2.482 2.625 3.244z" clip-rule="evenodd"/></mask><path fill="#57606A" fill-rule="evenodd" d="M12.375 12.713C13.975 11.952 15 10.781 15 9.47c0-1.15-.787-2.191-2.058-2.944l-.567.756v5.432zm-8.75 0V7.281l-.808-.606C1.688 7.413 1 8.393 1 9.469c0 1.312 1.025 2.482 2.625 3.244z" clip-rule="evenodd"/><path fill="#57606A" d="M12.375 12.713h-2v3.167l2.86-1.36-.86-1.807zm.567-6.188l1.019-1.721-1.543-.913-1.076 1.434 1.6 1.2zm-.567.756l-1.6-1.2-.4.533v.667h2zm-8.75 5.432l-.86 1.806 2.86 1.361v-3.167h-2zm0-5.432h2v-1l-.8-.6-1.2 1.6zm-.808-.606l1.2-1.6-1.121-.84L1.723 5l1.094 1.674zM13 9.469c0 .18-.182.818-1.485 1.438l1.72 3.612C15.133 13.616 17 11.913 17 9.47h-4zm-1.077-1.223C12.88 8.812 13 9.31 13 9.47h4c0-2.142-1.452-3.726-3.04-4.665l-2.037 3.442zm2.052.235l.567-.756-3.2-2.4-.567.756 3.2 2.4zm.4 4.232V7.281h-4v5.432h4zm-8.75 0V7.281h-4v5.432h4zm-.8-7.032l-.808-.606-2.4 3.2.808.606 2.4-3.2zM3 9.47c0-.15.1-.59.911-1.12L1.723 5.001C.276 5.947-1 7.468-1 9.469h4zm1.485 1.438C3.182 10.287 3 9.65 3 9.47h-4c0 2.444 1.867 4.147 3.765 5.05l1.72-3.612z" mask="url(#a)"/><path stroke="#57606A" stroke-width="1.2" d="M12.333 3.89c.605 1.262.126 2.47-.675 2.855-.801.385-2.044.003-2.65-1.259-.605-1.261-.125-2.47.676-2.854.801-.385 2.044-.002 2.65 1.259zm-8.837 0c-.605 1.262-.126 2.47.675 2.855.802.385 2.044.003 2.65-1.259.605-1.261.126-2.47-.676-2.854-.8-.385-2.044-.002-2.649 1.259z"/><ellipse cx="6.47" cy="9.69" fill="#57606A" rx=".66" ry="1.31"/><ellipse cx="9.53" cy="9.69" fill="#57606A" rx=".66" ry="1.31"/></symbol>
<symbol id="icon-actions" viewBox="0 0 16 16"><circle fill="none" cx="8" cy="8" r="7" stroke="#57606A" stroke-width="1.2"/><path fill="#57606A" d="M12 8l-6 3.464V4.536L12 8z"/></symbol>
<symbol id="icon-codebox" viewBox="0 0 16 16"><rect width="14" height="14" x="1" y="1" fill="none" stroke="#57606A" stroke-width="1.2" rx="1"/><path fill="none" stroke="#57606A" stroke-linecap="round" stroke-linejoin="round" stroke-width="1.2" d="M6.5 6l-2 2 2 2m3 0l2-2-2-2"/></symbol>
<symbol id="icon-filearrow" viewBox="0 0 12 12"><path fill="none" stroke="#57606A" stroke-linecap="round" stroke-linejoin="round" stroke-width="1.2" d="M4 10l4-4-4-4"/></symbol>
<symbol id="icon-download" viewBox="0 0 16 16"><path fill="none" stroke="#24292F" stroke-linecap="round" stroke-linejoin="round" stroke-width="1.2" d="M1 9.98v1.92a2 2 0 0 0 2 2h10a2 2 0 0 0 2-2V9.98M8 1.3v8.68m0 0l-3.64-4.2M8 9.98l3.64-4.2"/></symbol>
<symbol id="icon-dot" viewBox="0 0 16 16"><circle cx="1.5" cy="8" r="1.5" fill="#57606A"/><circle cx="8" cy="8" r="1.5" fill="#57606A"/><circle cx="14.5" cy="8" r="1.5" fill="#57606A"/></symbol>
<symbol id="icon-branch" viewBox="0 0 16 16"><circle fill="none" cx="3.78" cy="2.68" r="1.68" stroke="#57606A" stroke-linejoin="round" stroke-width="1.2"/><circle fill="none" cx="3.78" cy="13.32" r="1.68" stroke="#57606A" stroke-linejoin="round" stroke-width="1.2"/><circle fill="none" cx="12.28" cy="2.68" r="1.68" stroke="#57606A" stroke-linejoin="round" stroke-width="1.2"/><path fill="none" stroke="#57606A" stroke-linejoin="round" stroke-width="1.2" d="M3.65 4.247v5.914m0 2.179v-2.179m8.456-6.536v2.49l-.082.227a2 2 0 0 1-.91 1.071l-.464.258h-4.2a5.1 5.1 0 0 0-2.602 2.16l-.198.33"/></symbol>
<symbol id="icon-contact" viewBox="0 0 16 16"><path fill="#FF5722" stroke="#57606A" stroke-width="1.2" d="M13.3 15H2.5V1h7.386L13.3 4.414V15z"/><path fill="#fff" d="M11 6.5l-.078 1.148H6.357L6.513 8.9h4.304l-.287 3.626-2.504.783-2.556-.783-.183-1.878h1.356v.887l1.383.391 1.409-.391.078-1.461H5.287L5 6.5h6z"/><path fill="none" stroke="#57606A" stroke-linejoin="round" stroke-width="1.2" d="M9.9 1l3.404 3.242-.46 1.058H8.7V1h1.2z"/></symbol>
<symbol id="icon-filetree" viewBox="0 0 16 16"><mask id="a" fill="#fff"><rect width="16" height="16" rx="1"/></mask><rect width="16" height="16" fill="none" stroke="#57606A" stroke-width="2.5" mask="url(#a)" rx="1"/><path fill="none" stroke="#57606A" stroke-width="1.2" d="M10.25.25v15"/><path fill="#57606A" d="M3.5 8l3.375-3.031v6.062L3.5 8z"/></symbol>
<symbol id="icon-history" viewBox="0 0 16 17"><path fill="none" stroke="#57606A" stroke-linecap="round" stroke-linejoin="round" stroke-width="1.2" d="M2.37 3.806a7.016 7.016 0 1 1-1.368 4.911"/><path fill="#57606A" d="M.5 6.145h4.21L.5 1.935v4.21z"/><path stroke="#57606A" stroke-linecap="round" stroke-linejoin="round" stroke-width="1.2" d="M7.75 4.742V6.78a2 2 0 0 0 1.106 1.79l1.233.616"/></symbol>
<symbol id="icon-folder" viewBox="0 0 16 16"><path fill="#53AEFF" fill-rule="evenodd" d="M.088 2.414C0 2.7 0 3.053 0 3.757c0 .35 0 .622.01.84-.007.065-.01.13-.01.196v8.07a2 2 0 0 0 2 2h12a2 2 0 0 0 2-2v-8.07a2 2 0 0 0-2-2H7.475c-.174-.223-.397-.492-.677-.83-.194-.234-.291-.351-.4-.449a2 2 0 0 0-1.049-.493C5.205 1 5.053 1 4.75 1H2.757c-.704 0-1.057 0-1.343.088A2 2 0 0 0 .088 2.414z" clip-rule="evenodd"/></symbol>
<symbol id="icon-filetreeopen" viewBox="0 0 16 16"><mask id="a" fill="#fff"><rect width="16" height="16" rx="1"/></mask><rect width="16" height="16" fill="none" stroke="#57606A" stroke-width="2.5" mask="url(#a)" rx="1"/><path fill="none" stroke="#57606A" stroke-width="1.2" d="M10.25.25v15"/><path fill="#57606A" d="M8 8L4.625 4.969v6.062L8 8z"/></symbol>
<symbol id="icon-notifications" viewBox="0 0 16 16"><path fill="none" stroke="#57606A" stroke-linejoin="round" stroke-width="1.2" d="M4.48 2h7.04a1 1 0 0 1 .908.58l2.48 5.374a1 1 0 0 1 .092.419v4.494a1 1 0 0 1-1 1H2a1 1 0 0 1-1-1V8.373a1 1 0 0 1 .092-.42l2.48-5.372A1 1 0 0 1 4.48 2z"/><path fill="none" stroke="#57606A" stroke-linecap="round" stroke-linejoin="round" stroke-width="1.2" d="M2 8h2.5l1.25 3H10l1.25-3H14"/></symbol>
<symbol id="icon-issues" viewBox="0 0 16 16"><circle fill="none" cx="8" cy="8" r="7" stroke="#57606A" stroke-width="1.2"/><circle cx="8" cy="8" r="1.71" fill="#57606A"/></symbol>
<symbol id="icon-pencil" viewBox="0 0 16 16"><path fill="none" stroke="#24292F" stroke-linecap="round" stroke-linejoin="round" stroke-width="1.2" d="M14.586 3.2L13.12 4.666 11.334 2.88 12.8 1.414 14.586 3.2zM9.92 4.294l1.786 1.786-8.12 8.12a1 1 0 0 1-.543.279l-1.826.304.304-1.826a1 1 0 0 1 .28-.543l-.695-.695.694.695 8.12-8.12z"/></symbol>
<symbol id="icon-project" viewBox="0 0 16 16"><path fill="#F7DF1E" stroke="#57606A" stroke-width="1.2" d="M13.3 15H2.5V1h7.386L13.3 4.414V15z"/><path fill-rule="evenodd" d="M9.3 7.485a2.096 2.096 0 0 0-.47.243c-.104.08-.24.215-.303.302-.062.087-.149.26-.193.383a1.72 1.72 0 0 0-.08.48c0 .139.035.368.078.509.042.14.143.35.224.466.08.116.283.302.45.413.167.11.532.298.811.416.292.123.589.264.709.376.157.145.216.267.216.394a.53.53 0 0 1-.156.342c-.142.159-.547.205-.547.205s-.404-.01-.58-.1a1.619 1.619 0 0 1-.406-.329c-.103-.119-.201-.217-.218-.217a14.665 14.665 0 0 0-.896.512c-.01.01.019.086.063.17.044.086.205.271.357.413.153.142.405.316.562.387.157.072.47.156.696.187.292.04.517.04.78-.002.204-.033.471-.103.595-.158a2.05 2.05 0 0 0 .443-.296c.121-.108.276-.31.345-.45.1-.202.123-.337.12-.682-.003-.329-.033-.49-.126-.682a2.033 2.033 0 0 0-.38-.493c-.15-.14-.469-.34-.766-.481a80.37 80.37 0 0 0-.767-.36c-.143-.067-.3-.182-.35-.256a.692.692 0 0 1-.089-.324c0-.138.04-.221.15-.315a.524.524 0 0 1 .365-.128c.119 0 .289.038.378.083a.788.788 0 0 1 .259.242l.097.16.441-.283c.243-.156.441-.31.441-.344 0-.034-.108-.182-.241-.329a1.658 1.658 0 0 0-.527-.391c-.205-.09-.417-.13-.746-.144-.347-.014-.528.006-.74.08zM6.133 9.598v2.073c0 .275-.385.343-.535.343a.969.969 0 0 1-.37-.08.861.861 0 0 1-.273-.268c-.065-.105-.094-.217-.12-.217-.051 0-.235.115-.407.222l-.434.27c-.118.073-.12.082-.036.243.048.091.195.27.327.398.14.136.367.28.55.35.22.085.433.12.742.123.288.002.53-.03.727-.096.197-.067.377-.183.545-.35.147-.146.293-.36.352-.516.092-.242.104-.476.121-2.46l.02-2.191H6.147l-.015 2.156z" clip-rule="evenodd"/><path fill="none" stroke="#57606A" stroke-linejoin="round" stroke-width="1.2" d="M9.9 1l3.404 3.242-.46 1.058H8.7V1h1.2z"/></symbol>
<symbol id="icon-projects" viewBox="0 0 16 16"><rect fill="none" width="14" height="14" x="1" y="1" stroke="#57606A" stroke-width="1.2" rx="1"/><path fill="none" stroke="#57606A" stroke-linecap="square" stroke-width="1.2" d="M1.276 6.112h13M5.943 1.276v13"/></symbol>
<symbol id="icon-pullrequests" viewBox="0 0 16 17"><circle fill="none" cx="3.71" cy="4.51" r="1.72" stroke="#57606A" stroke-width="1.2"/><circle fill="none" cx="3.71" cy="14.21" r="1.72" stroke="#57606A" stroke-width="1.2"/><circle fill="none" cx="13.2" cy="14.21" r="1.72" stroke="#57606A" stroke-width="1.2"/><path fill="#57606A" d="M6.914 4.214L10.343.998V7.43L6.914 4.214z"/><path fill="none" stroke="#57606A" stroke-linecap="square" stroke-width="1.2" d="M3.6 6.287v5.716m9.57.286V5.715C13.17 3.924 12.006 4 12.006 4h-1.94"/></symbol>
<symbol id="icon-plus" viewBox="0 0 16 16"><path stroke="#57606A" stroke-linecap="square" stroke-width="1.2" d="M2 8h12M8 2v12"/></symbol>
<symbol id="icon-readme" viewBox="0 0 16 16"><path fill="#fff" stroke="#57606A" stroke-width="1.2" d="M13.3 15H2.5V1h7.386L13.3 4.414V15z"/><path fill="none" stroke="#57606A" stroke-linejoin="round" stroke-width="1.2" d="M9.9 1l3.404 3.242-.46 1.058H8.7V1h1.2z"/></symbol>
<symbol id="icon-search" viewBox="0 0 16 16"><circle fill="none" cx="6.46" cy="6.46" r="5.46" stroke="#57606A" stroke-width="1.2"/><path stroke="#57606A" stroke-linecap="round" stroke-width="1.2" d="M11 11l4 4"/></symbol>
<symbol id="icon-security" viewBox="0 0 16 16"><mask id="a" fill="#fff"><path fill="none" fill-rule="evenodd" d="M8.242 15.842a.891.891 0 0 1-.52 0C5.325 15.113 1 12.782 1 8.604V3.546c0-.43.276-.81.68-.96.867-.324 1.789-.726 2.968-1.241C5.48.982 6.438.564 7.598.077a.994.994 0 0 1 .768 0c1.159.487 2.118.905 2.95 1.268 1.179.515 2.1.917 2.968 1.24.404.15.68.531.68.961v5.058c0 4.177-4.326 6.51-6.722 7.238z" clip-rule="evenodd"/></mask><path fill="#57606A" d="M4.648 1.345l-.8-1.833.8 1.833zm6.667 0l-.8 1.833.8-1.833zM8.366.077l-.774 1.845.774-1.845zM1.68 2.585L.981.711l.698 1.874zm12.605 0l.7-1.874-.7 1.874zM7.722 15.842l.582-1.914-.582 1.914zm.52 0l-.582-1.914.582 1.914zM-1 8.604c0 2.853 1.495 4.988 3.153 6.424 1.64 1.421 3.59 2.302 4.987 2.727l1.164-3.827c-.999-.303-2.411-.952-3.532-1.924C3.667 11.048 3 9.928 3 8.604h-4zm0-5.058v5.058h4V3.546h-4zM3.848-.488C2.654.032 1.787.41.981.712l1.397 3.747c.93-.346 1.905-.773 3.07-1.281l-1.6-3.666zm2.975-1.279C5.65-1.274 4.68-.85 3.848-.488l1.6 3.666c.831-.363 1.779-.776 2.923-1.256L6.823-1.767zm.77 3.689c1.144.48 2.091.893 2.922 1.256l1.6-3.666c-.831-.363-1.802-.786-2.975-1.279L7.592 1.922zm2.922 1.256c1.165.508 2.141.935 3.07 1.281L14.983.711c-.806-.3-1.674-.678-2.868-1.2l-1.6 3.667zm2.449.368v5.058h4V3.546h-4zm0 5.058c0 1.324-.668 2.444-1.772 3.4-1.121.972-2.534 1.62-3.532 1.924l1.164 3.827c1.398-.425 3.346-1.306 4.987-2.727 1.657-1.436 3.153-3.57 3.153-6.424h-4zM8.37 1.922c-.249.104-.53.104-.779 0L9.14-1.767a2.994 2.994 0 0 0-2.317 0l1.548 3.689zM3 3.546c0 .444-.28.786-.622.913L.981.711A3.032 3.032 0 0 0-1 3.546h4zm10.585.913a.968.968 0 0 1-.621-.913h4a3.032 3.032 0 0 0-1.98-2.835l-1.4 3.749zM7.14 17.755a2.89 2.89 0 0 0 1.684 0L7.66 13.928a1.11 1.11 0 0 1 .644 0L7.14 17.755z" mask="url(#a)"/><path fill="none" stroke="#57606A" stroke-linecap="round" stroke-linejoin="round" stroke-width="1.2" d="M7.982 5.153v3.2"/><circle cx="8" cy="11.5" r="1" fill="#57606A"/></symbol>
<symbol id="icon-settings" viewBox="0 0 16 16"><circle fill="none" cx="7.89" cy="7.79" r="1.26" stroke="#57606A" stroke-width="1.2"/><path stroke="#57606A" stroke-linecap="round" stroke-linejoin="round" stroke-width="1.2" d="M13.524 3.515C10.148 4.923 9.303 2.425 9.303 1H8.015M2.506 3.515C5.882 4.923 6.726 2.425 6.726 1h1.289m0 13.995h-1.29c0-1.425-.843-3.923-4.219-2.515L1.1 10.555m6.915 4.44h1.29c0-1.425.843-3.923 4.219-2.515l1.406-1.925m-1.406-7.04l1.406 2.263c-1.016.67-2.438 2.564 0 4.777M2.506 3.515L1.1 5.778c1.016.67 2.438 2.564 0 4.777"/></symbol>
<symbol id="icon-insights" viewBox="0 0 16 16"><path fill="none" stroke="#57606A" stroke-linecap="square" stroke-linejoin="round" stroke-width="1.2" d="M1 2v11.42h13.562"/><path stroke="#57606A" stroke-linecap="square" stroke-linejoin="round" stroke-width="1.2" d="M4 8l2.826-2.955 2.609 2.728L14.5 3"/></symbol>
<symbol id="icon-t" viewBox="0 0 18 18"><rect width="17" height="17" x=".5" y=".5" fill="#F6F8FA" stroke="#E7EBEE" rx="5.5"/><path stroke="#24292F" stroke-linecap="square" stroke-width="1.2" d="M7 7.25h3.75m-2-1.75v4.574c0 .284-.027.567-.02.851.014.518.171 1.325 1.02 1.325h1"/></symbol>
<symbol id="logo" viewBox="0 0 32 32"><path fill="#24292F" fill-rule="evenodd" d="M20.5 31.608C27.146 29.665 32 23.524 32 16.25c0-8.837-7.163-16-16-16s-16 7.163-16 16c0 7.455 5.1 13.72 12 15.496v-3.899c-.626.168-2.28.526-3.28-.073-1.25-.75-1.553-1.385-2-2.5-.5-1.25-1.332-1.666-2-1.75-.166-.166-.4-.55 0-.75.5-.083 1.7 0 2.5 1l.256.32c.838 1.053 1.318 1.656 1.774 1.656.39 0 1.206 0 2.864-.23a4.234 4.234 0 0 1 .811-1.667C8.907 22.783 6 19.67 6 16c0-1.579.538-3.054 1.47-4.308a15.325 15.325 0 0 1 .159-3.994c.306-1.783 2.587-.498 4.306.762A11.79 11.79 0 0 1 16 7.75c1.545 0 3.009.29 4.315.805 1.731-1.289 4.12-2.685 4.435-.857.34 1.974.218 3.615.105 4.465C25.586 13.31 26 14.615 26 16c0 3.547-2.713 6.571-6.52 7.737A4.234 4.234 0 0 1 20.5 26.5v5.108z" clip-rule="evenodd"/></symbol>
<symbol id="icon-copy" viewBox="0 0 16 16"><rect width="8.54" height="8.54" x="6.46" y="1" fill="none" stroke="#000" stroke-width="1.2" rx="1"/><path fill="none" stroke="#000" stroke-width="1.2" d="M4.843 6.4H2a1 1 0 0 0-1 1v6.54a1 1 0 0 0 1 1h6.54a1 1 0 0 0 1-1v-2.843"/></symbol>
<symbol id="icon-folderopen" viewBox="0 0 16 16"><path fill="#53AEFF" fill-rule="evenodd" d="M0 3.757c0-.704 0-1.056.088-1.343a2 2 0 0 1 1.326-1.326C1.701 1 2.053 1 2.757 1h1.992c.304 0 .456 0 .6.021a2 2 0 0 1 1.05.493c.108.098.205.215.4.45.34.41.595.719.78.967h6.043A2 2 0 0 1 15.575 4.5H2V6h13.56l-.444 7.124A2 2 0 0 1 13.12 15H2a2 2 0 0 1-2-2V4.931c0-.081.005-.161.014-.24C0 4.456 0 4.16 0 3.757z" clip-rule="evenodd"/></symbol></svg>